<svg id="visual" viewBox="0 0 900 600" width="900" height="600" xmlns="http://www.w3.org/2000/svg" xmlns:xlink="http://www.w3.org/1999/xlink" version="1.1"><rect x="0" y="0" width="900" height="600" fill="#102E4A"></rect><defs><linearGradient id="grad1_0" x1="33.3%" y1="0%" x2="100%" y2="100%"><stop offset="20%" stop-color="#164775" stop-opacity="1"></stop><stop offset="80%" stop-color="#164775" stop-opacity="1"></stop></linearGradient></defs><defs><linearGradient id="grad1_1" x1="33.3%" y1="0%" x2="100%" y2="100%"><stop offset="20%" stop-color="#164775" stop-opacity="1"></stop><stop offset="80%" stop-color="#102e4a" stop-opacity="1"></stop></linearGradient></defs><defs><linearGradient id="grad2_0" x1="0%" y1="0%" x2="66.7%" y2="100%"><stop offset="20%" stop-color="#164775" stop-opacity="1"></stop><stop offset="80%" stop-color="#164775" stop-opacity="1"></stop></linearGradient></defs><defs><linearGradient id="grad2_1" x1="0%" y1="0%" x2="66.7%" y2="100%"><stop offset="20%" stop-color="#102e4a" stop-opacity="1"></stop><stop offset="80%" stop-color="#164775" stop-opacity="1"></stop></linearGradient></defs><g transform="translate(900, 0)"><path d="M0 324.5C-23.6 284.5 -47.1 244.5 -76.3 234.9C-105.5 225.3 -140.3 246.1 -178.7 245.9C-217.1 245.8 -259 224.6 -262.5 190.7C-266 156.9 -231 110.2 -234.9 76.3C-238.8 42.4 -281.7 21.2 -324.5 0L0 0Z" fill="#133a5f"></path><path d="M0 162.2C-11.8 142.3 -23.6 122.3 -38.2 117.5C-52.8 112.7 -70.2 123.1 -89.3 123C-108.5 122.9 -129.5 112.3 -131.3 95.4C-133 78.4 -115.5 55.1 -117.5 38.2C-119.4 21.2 -140.8 10.6 -162.2 0L0 0Z" fill="#164775"></path></g><g transform="translate(0, 600)"><path d="M0 -324.5C28.9 -291.5 57.8 -258.6 75.7 -233C93.6 -207.4 100.4 -189.3 137.5 -189.3C174.7 -189.4 242.1 -207.6 262.5 -190.7C282.9 -173.8 256.2 -121.7 258.7 -84.1C261.2 -46.4 292.8 -23.2 324.5 0L0 0Z" fill="#133a5f"></path><path d="M0 -162.2C14.5 -145.8 28.9 -129.3 37.9 -116.5C46.8 -103.7 50.2 -94.6 68.8 -94.7C87.3 -94.7 121.1 -103.8 131.3 -95.4C141.5 -86.9 128.1 -60.9 129.3 -42C130.6 -23.2 146.4 -11.6 162.2 0L0 0Z" fill="#164775"></path></g></svg>