<svg id="visual" viewBox="0 0 1920 4000" width="1920" height="4000" xmlns="http://www.w3.org/2000/svg" xmlns:xlink="http://www.w3.org/1999/xlink" version="1.1"><rect x="0" y="0" width="1920" height="4000" fill="#102E4A"></rect><defs><linearGradient id="grad1_0" x1="0%" y1="0%" x2="100%" y2="100%"><stop offset="30%" stop-color="#a23b72" stop-opacity="1"></stop><stop offset="70%" stop-color="#a23b72" stop-opacity="1"></stop></linearGradient></defs><defs><linearGradient id="grad1_1" x1="0%" y1="0%" x2="100%" y2="100%"><stop offset="30%" stop-color="#a23b72" stop-opacity="1"></stop><stop offset="70%" stop-color="#6d3c75" stop-opacity="1"></stop></linearGradient></defs><defs><linearGradient id="grad1_2" x1="0%" y1="0%" x2="100%" y2="100%"><stop offset="30%" stop-color="#393866" stop-opacity="1"></stop><stop offset="70%" stop-color="#6d3c75" stop-opacity="1"></stop></linearGradient></defs><defs><linearGradient id="grad1_3" x1="0%" y1="0%" x2="100%" y2="100%"><stop offset="30%" stop-color="#393866" stop-opacity="1"></stop><stop offset="70%" stop-color="#102e4a" stop-opacity="1"></stop></linearGradient></defs><defs><linearGradient id="grad2_0" x1="0%" y1="0%" x2="100%" y2="100%"><stop offset="30%" stop-color="#a23b72" stop-opacity="1"></stop><stop offset="70%" stop-color="#a23b72" stop-opacity="1"></stop></linearGradient></defs><defs><linearGradient id="grad2_1" x1="0%" y1="0%" x2="100%" y2="100%"><stop offset="30%" stop-color="#6d3c75" stop-opacity="1"></stop><stop offset="70%" stop-color="#a23b72" stop-opacity="1"></stop></linearGradient></defs><defs><linearGradient id="grad2_2" x1="0%" y1="0%" x2="100%" y2="100%"><stop offset="30%" stop-color="#6d3c75" stop-opacity="1"></stop><stop offset="70%" stop-color="#393866" stop-opacity="1"></stop></linearGradient></defs><defs><linearGradient id="grad2_3" x1="0%" y1="0%" x2="100%" y2="100%"><stop offset="30%" stop-color="#102e4a" stop-opacity="1"></stop><stop offset="70%" stop-color="#393866" stop-opacity="1"></stop></linearGradient></defs><g transform="translate(1920, 0)"><path d="M0 1248C-177.3 1245.5 -354.6 1243 -477.6 1153C-600.5 1063 -669.1 885.6 -756.6 756.6C-844.1 627.6 -950.6 547 -1035.7 429C-1120.7 311 -1184.4 155.5 -1248 0L0 0Z" fill="#223459"></path><path d="M0 936C-133 934.1 -266 932.2 -358.2 864.8C-450.4 797.3 -501.8 664.2 -567.5 567.5C-633.1 470.7 -713 410.3 -776.8 321.7C-840.5 233.2 -888.3 116.6 -936 0L0 0Z" fill="#523b70"></path><path d="M0 624C-88.7 622.7 -177.3 621.5 -238.8 576.5C-300.3 531.5 -334.5 442.8 -378.3 378.3C-422.1 313.8 -475.3 273.5 -517.8 214.5C-560.4 155.5 -592.2 77.7 -624 0L0 0Z" fill="#883c76"></path><path d="M0 312C-44.3 311.4 -88.7 310.7 -119.4 288.3C-150.1 265.8 -167.3 221.4 -189.2 189.2C-211 156.9 -237.7 136.8 -258.9 107.2C-280.2 77.7 -296.1 38.9 -312 0L0 0Z" fill="#a23b72"></path></g><g transform="translate(0, 4000)"><path d="M0 -1248C116.9 -1119.7 233.8 -991.4 393.4 -949.7C553 -908.1 755.4 -953 882.5 -882.5C1009.5 -811.9 1061.2 -625.9 1109.6 -459.6C1157.9 -293.3 1203 -146.6 1248 0L0 0Z" fill="#223459"></path><path d="M0 -936C87.7 -839.8 175.3 -743.6 295 -712.3C414.8 -681.1 566.6 -714.8 661.9 -661.9C757.1 -608.9 795.9 -469.4 832.2 -344.7C868.5 -220 902.2 -110 936 0L0 0Z" fill="#523b70"></path><path d="M0 -624C58.4 -559.9 116.9 -495.7 196.7 -474.9C276.5 -454 377.7 -476.5 441.2 -441.2C504.8 -406 530.6 -313 554.8 -229.8C579 -146.6 601.5 -73.3 624 0L0 0Z" fill="#883c76"></path><path d="M0 -312C29.2 -279.9 58.4 -247.9 98.3 -237.4C138.3 -227 188.9 -238.3 220.6 -220.6C252.4 -203 265.3 -156.5 277.4 -114.9C289.5 -73.3 300.7 -36.7 312 0L0 0Z" fill="#a23b72"></path></g></svg>