<svg id="visual" viewBox="0 0 1920 2044" width="1920" height="2044" xmlns="http://www.w3.org/2000/svg" xmlns:xlink="http://www.w3.org/1999/xlink" version="1.1"><rect x="0" y="0" width="1920" height="2044" fill="#102E4A"></rect><defs><linearGradient id="grad1_0" x1="0%" y1="0%" x2="100%" y2="100%"><stop offset="30%" stop-color="#164775" stop-opacity="1"></stop><stop offset="70%" stop-color="#164775" stop-opacity="1"></stop></linearGradient></defs><defs><linearGradient id="grad1_1" x1="0%" y1="0%" x2="100%" y2="100%"><stop offset="30%" stop-color="#164775" stop-opacity="1"></stop><stop offset="70%" stop-color="#102e4a" stop-opacity="1"></stop></linearGradient></defs><defs><linearGradient id="grad2_0" x1="0%" y1="0%" x2="100%" y2="100%"><stop offset="30%" stop-color="#164775" stop-opacity="1"></stop><stop offset="70%" stop-color="#164775" stop-opacity="1"></stop></linearGradient></defs><defs><linearGradient id="grad2_1" x1="0%" y1="0%" x2="100%" y2="100%"><stop offset="30%" stop-color="#102e4a" stop-opacity="1"></stop><stop offset="70%" stop-color="#164775" stop-opacity="1"></stop></linearGradient></defs><g transform="translate(1920, 0)"><path d="M0 841.3C-58.5 746.1 -116.9 651 -208.3 641C-299.7 631 -424 706.2 -494.5 680.6C-565.1 655 -581.9 528.6 -601.9 437.3C-622 346 -645.3 289.8 -685.7 222.8C-726.2 155.8 -783.7 77.9 -841.3 0L0 0Z" fill="#133a5f"></path><path d="M0 420.7C-29.2 373.1 -58.5 325.5 -104.1 320.5C-149.8 315.5 -212 353.1 -247.3 340.3C-282.5 327.5 -290.9 264.3 -301 218.7C-311 173 -322.6 144.9 -342.9 111.4C-363.1 77.9 -391.9 38.9 -420.7 0L0 0Z" fill="#164775"></path></g><g transform="translate(0, 2044)"><path d="M0 -841.3C102.6 -853.5 205.2 -865.8 260 -800.1C314.8 -734.5 321.8 -590.9 389.7 -536.4C457.6 -481.8 586.4 -516.2 665 -483.2C743.7 -450.1 772.2 -349.5 793.2 -257.7C814.2 -165.9 827.8 -83 841.3 0L0 0Z" fill="#133a5f"></path><path d="M0 -420.7C51.3 -426.8 102.6 -432.9 130 -400.1C157.4 -367.2 160.9 -295.5 194.9 -268.2C228.8 -240.9 293.2 -258.1 332.5 -241.6C371.8 -225 386.1 -174.7 396.6 -128.9C407.1 -83 413.9 -41.5 420.7 0L0 0Z" fill="#164775"></path></g></svg>