<svg id="visual" viewBox="0 0 1920 4000" width="1920" height="4000" xmlns="http://www.w3.org/2000/svg" xmlns:xlink="http://www.w3.org/1999/xlink" version="1.1"><rect x="0" y="0" width="1920" height="4000" fill="#102E4A"></rect><defs><linearGradient id="grad1_0" x1="0%" y1="0%" x2="100%" y2="100%"><stop offset="30%" stop-color="#459ba7" stop-opacity="1"></stop><stop offset="70%" stop-color="#459ba7" stop-opacity="1"></stop></linearGradient></defs><defs><linearGradient id="grad1_1" x1="0%" y1="0%" x2="100%" y2="100%"><stop offset="30%" stop-color="#459ba7" stop-opacity="1"></stop><stop offset="70%" stop-color="#2a758b" stop-opacity="1"></stop></linearGradient></defs><defs><linearGradient id="grad1_2" x1="0%" y1="0%" x2="100%" y2="100%"><stop offset="30%" stop-color="#1a506c" stop-opacity="1"></stop><stop offset="70%" stop-color="#2a758b" stop-opacity="1"></stop></linearGradient></defs><defs><linearGradient id="grad1_3" x1="0%" y1="0%" x2="100%" y2="100%"><stop offset="30%" stop-color="#1a506c" stop-opacity="1"></stop><stop offset="70%" stop-color="#102e4a" stop-opacity="1"></stop></linearGradient></defs><defs><linearGradient id="grad2_0" x1="0%" y1="0%" x2="100%" y2="100%"><stop offset="30%" stop-color="#459ba7" stop-opacity="1"></stop><stop offset="70%" stop-color="#459ba7" stop-opacity="1"></stop></linearGradient></defs><defs><linearGradient id="grad2_1" x1="0%" y1="0%" x2="100%" y2="100%"><stop offset="30%" stop-color="#2a758b" stop-opacity="1"></stop><stop offset="70%" stop-color="#459ba7" stop-opacity="1"></stop></linearGradient></defs><defs><linearGradient id="grad2_2" x1="0%" y1="0%" x2="100%" y2="100%"><stop offset="30%" stop-color="#2a758b" stop-opacity="1"></stop><stop offset="70%" stop-color="#1a506c" stop-opacity="1"></stop></linearGradient></defs><defs><linearGradient id="grad2_3" x1="0%" y1="0%" x2="100%" y2="100%"><stop offset="30%" stop-color="#102e4a" stop-opacity="1"></stop><stop offset="70%" stop-color="#1a506c" stop-opacity="1"></stop></linearGradient></defs><g transform="translate(1920, 0)"><path d="M0 1728C-99 1498.6 -198 1269.2 -322.5 1203.5C-447 1137.9 -596.9 1236.1 -700 1212.4C-803.1 1188.7 -859.2 1043.1 -954.6 954.6C-1050 866.1 -1184.7 834.7 -1322.4 763.5C-1460.2 692.3 -1601 581.1 -1669.1 447.2C-1737.2 313.3 -1732.6 156.7 -1728 0L0 0Z" fill="#143f5b"></path><path d="M0 1296C-74.3 1123.9 -148.5 951.9 -241.9 902.7C-335.2 853.5 -447.7 927.1 -525 909.3C-602.3 891.5 -644.4 782.3 -715.9 715.9C-787.5 649.6 -888.5 626.1 -991.8 572.6C-1095.1 519.2 -1200.8 435.9 -1251.8 335.4C-1302.9 235 -1299.5 117.5 -1296 0L0 0Z" fill="#21627c"></path><path d="M0 864C-49.5 749.3 -99 634.6 -161.2 601.8C-223.5 569 -298.5 618.1 -350 606.2C-401.5 594.4 -429.6 521.5 -477.3 477.3C-525 433 -592.3 417.4 -661.2 381.8C-730.1 346.1 -800.5 290.6 -834.6 223.6C-868.6 156.7 -866.3 78.3 -864 0L0 0Z" fill="#36889a"></path><path d="M0 432C-24.8 374.6 -49.5 317.3 -80.6 300.9C-111.7 284.5 -149.2 309 -175 303.1C-200.8 297.2 -214.8 260.8 -238.6 238.6C-262.5 216.5 -296.2 208.7 -330.6 190.9C-365 173.1 -400.3 145.3 -417.3 111.8C-434.3 78.3 -433.2 39.2 -432 0L0 0Z" fill="#459ba7"></path></g><g transform="translate(0, 4000)"><path d="M0 -1728C87.3 -1466.1 174.7 -1204.2 315.8 -1178.4C456.8 -1152.6 651.6 -1363 809.5 -1402.1C967.4 -1441.2 1088.5 -1309.2 1187.9 -1187.9C1287.4 -1066.7 1365.3 -956.1 1448.9 -836.5C1532.4 -716.9 1621.7 -588.2 1669.1 -447.2C1716.6 -306.3 1722.3 -153.2 1728 0L0 0Z" fill="#143f5b"></path><path d="M0 -1296C65.5 -1099.6 131 -903.2 236.8 -883.8C342.6 -864.5 488.7 -1022.2 607.1 -1051.6C725.6 -1080.9 816.4 -981.9 891 -891C965.6 -800 1024 -717.1 1086.6 -627.4C1149.3 -537.7 1216.2 -441.1 1251.8 -335.4C1287.4 -229.7 1291.7 -114.9 1296 0L0 0Z" fill="#21627c"></path><path d="M0 -864C43.7 -733.1 87.3 -602.1 157.9 -589.2C228.4 -576.3 325.8 -681.5 404.7 -701C483.7 -720.6 544.2 -654.6 594 -594C643.7 -533.3 682.7 -478.1 724.4 -418.3C766.2 -358.4 810.8 -294.1 834.6 -223.6C858.3 -153.2 861.1 -76.6 864 0L0 0Z" fill="#36889a"></path><path d="M0 -432C21.8 -366.5 43.7 -301.1 78.9 -294.6C114.2 -288.2 162.9 -340.7 202.4 -350.5C241.9 -360.3 272.1 -327.3 297 -297C321.9 -266.7 341.3 -239 362.2 -209.1C383.1 -179.2 405.4 -147 417.3 -111.8C429.1 -76.6 430.6 -38.3 432 0L0 0Z" fill="#459ba7"></path></g></svg>