<svg id="visual" viewBox="0 0 540 960" width="540" height="960" xmlns="http://www.w3.org/2000/svg" xmlns:xlink="http://www.w3.org/1999/xlink" version="1.1"><rect x="0" y="0" width="540" height="960" fill="#102E4A"></rect><defs><linearGradient id="grad1_0" x1="0%" y1="0%" x2="100%" y2="100%"><stop offset="30%" stop-color="#a23b72" stop-opacity="1"></stop><stop offset="70%" stop-color="#a23b72" stop-opacity="1"></stop></linearGradient></defs><defs><linearGradient id="grad1_1" x1="0%" y1="0%" x2="100%" y2="100%"><stop offset="30%" stop-color="#a23b72" stop-opacity="1"></stop><stop offset="70%" stop-color="#6d3c75" stop-opacity="1"></stop></linearGradient></defs><defs><linearGradient id="grad1_2" x1="0%" y1="0%" x2="100%" y2="100%"><stop offset="30%" stop-color="#393866" stop-opacity="1"></stop><stop offset="70%" stop-color="#6d3c75" stop-opacity="1"></stop></linearGradient></defs><defs><linearGradient id="grad1_3" x1="0%" y1="0%" x2="100%" y2="100%"><stop offset="30%" stop-color="#393866" stop-opacity="1"></stop><stop offset="70%" stop-color="#102e4a" stop-opacity="1"></stop></linearGradient></defs><defs><linearGradient id="grad2_0" x1="0%" y1="0%" x2="100%" y2="100%"><stop offset="30%" stop-color="#a23b72" stop-opacity="1"></stop><stop offset="70%" stop-color="#a23b72" stop-opacity="1"></stop></linearGradient></defs><defs><linearGradient id="grad2_1" x1="0%" y1="0%" x2="100%" y2="100%"><stop offset="30%" stop-color="#6d3c75" stop-opacity="1"></stop><stop offset="70%" stop-color="#a23b72" stop-opacity="1"></stop></linearGradient></defs><defs><linearGradient id="grad2_2" x1="0%" y1="0%" x2="100%" y2="100%"><stop offset="30%" stop-color="#6d3c75" stop-opacity="1"></stop><stop offset="70%" stop-color="#393866" stop-opacity="1"></stop></linearGradient></defs><defs><linearGradient id="grad2_3" x1="0%" y1="0%" x2="100%" y2="100%"><stop offset="30%" stop-color="#102e4a" stop-opacity="1"></stop><stop offset="70%" stop-color="#393866" stop-opacity="1"></stop></linearGradient></defs><g transform="translate(540, 0)"><path d="M0 351C-54 353.9 -108 356.8 -134.3 324.3C-160.7 291.8 -159.4 223.9 -190.2 190.2C-221 156.5 -283.8 156.9 -316 130.9C-348.1 104.9 -349.6 52.4 -351 0L0 0Z" fill="#223459"></path><path d="M0 263.3C-40.5 265.4 -81 267.6 -100.7 243.2C-120.5 218.8 -119.6 168 -142.7 142.7C-165.7 117.4 -212.9 117.7 -237 98.2C-261.1 78.6 -262.2 39.3 -263.2 0L0 0Z" fill="#523b70"></path><path d="M0 175.5C-27 176.9 -54 178.4 -67.2 162.1C-80.3 145.9 -79.7 112 -95.1 95.1C-110.5 78.2 -141.9 78.4 -158 65.4C-174.1 52.4 -174.8 26.2 -175.5 0L0 0Z" fill="#883c76"></path><path d="M0 87.8C-13.5 88.5 -27 89.2 -33.6 81.1C-40.2 72.9 -39.9 56 -47.6 47.6C-55.2 39.1 -71 39.2 -79 32.7C-87 26.2 -87.4 13.1 -87.7 0L0 0Z" fill="#a23b72"></path></g><g transform="translate(0, 960)"><path d="M0 -351C40 -319.8 80.1 -288.5 107.9 -260.5C135.8 -232.6 151.5 -207.8 190.9 -190.9C230.4 -174 293.6 -164.8 324.3 -134.3C354.9 -103.8 353 -51.9 351 0L0 0Z" fill="#223459"></path><path d="M0 -263.2C30 -239.8 60 -216.4 80.9 -195.4C101.8 -174.4 113.6 -155.9 143.2 -143.2C172.8 -130.5 220.2 -123.6 243.2 -100.7C266.2 -77.8 264.7 -38.9 263.3 0L0 0Z" fill="#523b70"></path><path d="M0 -175.5C20 -159.9 40 -144.3 54 -130.3C67.9 -116.3 75.7 -103.9 95.5 -95.5C115.2 -87 146.8 -82.4 162.1 -67.2C177.5 -51.9 176.5 -25.9 175.5 0L0 0Z" fill="#883c76"></path><path d="M0 -87.7C10 -79.9 20 -72.1 27 -65.1C33.9 -58.1 37.9 -52 47.7 -47.7C57.6 -43.5 73.4 -41.2 81.1 -33.6C88.7 -25.9 88.2 -13 87.8 0L0 0Z" fill="#a23b72"></path></g></svg>