<svg id="visual" viewBox="0 0 900 600" width="900" height="600" xmlns="http://www.w3.org/2000/svg" xmlns:xlink="http://www.w3.org/1999/xlink" version="1.1"><rect width="900" height="600" fill="#102E4A"></rect><g><g transform="translate(95 266)"><path d="M6.5 -5.1C8.2 -3 9.3 -0.3 9 2.5C8.8 5.4 7.1 8.4 4.8 9.4C2.4 10.3 -0.7 9.1 -3.4 7.6C-6 6.1 -8.2 4.2 -9.2 1.6C-10.2 -1.1 -10.1 -4.5 -8.4 -6.6C-6.7 -8.7 -3.3 -9.5 -0.5 -9.1C2.4 -8.8 4.8 -7.2 6.5 -5.1Z" fill="none" stroke="#848484" stroke-width="1"></path></g><g transform="translate(407 403)"><path d="M5.1 -4.2C6.3 -2.5 6.8 -0.4 6.5 1.7C6.2 3.9 5.1 6 3.3 7C1.4 7.9 -1.1 7.7 -3 6.6C-5 5.5 -6.4 3.7 -6.9 1.6C-7.3 -0.5 -6.8 -2.8 -5.5 -4.5C-4.2 -6.3 -2.1 -7.5 -0.1 -7.4C1.9 -7.3 3.8 -6 5.1 -4.2Z" fill="none" stroke="#848484" stroke-width="1"></path></g><g transform="translate(792 82)"><path d="M5.2 -4.3C6.4 -2.7 6.8 -0.5 6.3 1.3C5.8 3.2 4.4 4.8 2.6 5.7C0.9 6.6 -1.3 7 -3 6.2C-4.7 5.4 -6 3.5 -6.3 1.6C-6.7 -0.4 -6.1 -2.4 -4.9 -4.1C-3.7 -5.8 -1.9 -7.1 0.1 -7.2C2 -7.2 4 -6 5.2 -4.3Z" fill="none" stroke="#848484" stroke-width="1"></path></g><g transform="translate(833 498)"><path d="M4.5 -3.5C5.9 -1.9 7.1 0 6.9 1.8C6.7 3.7 5.1 5.4 3.1 6.3C1.1 7.2 -1.2 7.3 -3.1 6.4C-4.9 5.5 -6.3 3.6 -6.6 1.6C-7 -0.3 -6.3 -2.4 -5 -4C-3.8 -5.5 -1.9 -6.5 -0.1 -6.4C1.6 -6.3 3.2 -5 4.5 -3.5Z" stroke="#848484" fill="none" stroke-width="1"></path></g><g transform="translate(722 270)"><path d="M5.5 -4.9C6.9 -2.8 7.4 -0.5 7.1 2C6.9 4.4 5.8 7.1 3.8 8.1C1.9 9.1 -0.9 8.4 -3.4 7.2C-5.8 5.9 -7.8 4.1 -8.7 1.6C-9.6 -0.9 -9.4 -4.1 -7.7 -6.3C-6.1 -8.5 -3 -9.7 -0.5 -9.4C2.1 -9 4.2 -7 5.5 -4.9Z" stroke="#848484" fill="none" stroke-width="1"></path></g><g transform="translate(732 364)"><path d="M3.6 -2.9C4.7 -1.6 5.5 -0.1 5.2 1.1C4.9 2.4 3.5 3.3 1.9 4.1C0.4 4.9 -1.3 5.5 -2.7 5.1C-4.1 4.6 -5.3 3 -5.4 1.6C-5.5 0.1 -4.5 -1.4 -3.4 -2.7C-2.3 -4.1 -1.2 -5.4 0.1 -5.4C1.3 -5.5 2.6 -4.3 3.6 -2.9Z" stroke="#848484" fill="none" stroke-width="1"></path></g><g transform="translate(521 227)"><path d="M3.6 -3.2C4.5 -1.8 4.9 -0.3 4.7 1.4C4.6 3 3.9 4.8 2.6 5.5C1.3 6.2 -0.6 5.7 -2.3 4.9C-3.9 4 -5.3 2.8 -5.6 1.3C-6 -0.2 -5.3 -2 -4.2 -3.4C-3.1 -4.9 -1.5 -6.1 -0.1 -6.1C1.4 -6 2.7 -4.6 3.6 -3.2Z" stroke="#848484" fill="none" stroke-width="1"></path></g><g transform="translate(583 349)"><path d="M2.6 -2.3C3.2 -1.4 3.3 -0.3 3 0.7C2.8 1.8 2.3 2.8 1.5 3.3C0.6 3.8 -0.7 3.9 -1.5 3.4C-2.4 2.9 -2.8 1.8 -3 0.7C-3.3 -0.4 -3.3 -1.5 -2.7 -2.4C-2.2 -3.4 -1.1 -4.1 0 -4.1C1 -4.1 2.1 -3.3 2.6 -2.3Z" stroke="#848484" fill="none" stroke-width="1"></path></g><g transform="translate(13 155)"><path d="M6 -4.8C7.5 -2.8 8.5 -0.3 8 1.8C7.5 3.8 5.4 5.4 3.1 6.6C0.8 7.8 -1.8 8.5 -3.8 7.6C-5.8 6.8 -7.2 4.4 -7.5 2C-7.7 -0.3 -6.9 -2.6 -5.5 -4.5C-4 -6.5 -2 -8.2 0.1 -8.3C2.2 -8.3 4.4 -6.8 6 -4.8Z" stroke="#848484" fill="none" stroke-width="1"></path></g><g transform="translate(152 86)"><path d="M2.3 -1.7C2.8 -1.1 3.1 -0.2 3 0.7C2.8 1.6 2.2 2.4 1.3 2.8C0.5 3.3 -0.6 3.3 -1.5 2.9C-2.4 2.5 -3.2 1.7 -3.5 0.7C-3.8 -0.3 -3.6 -1.5 -2.9 -2.2C-2.2 -2.8 -1.1 -3 -0.1 -2.9C0.8 -2.8 1.7 -2.4 2.3 -1.7Z" stroke="#848484" fill="none" stroke-width="1"></path></g><g transform="translate(761 347)"><path d="M3 -2.2C3.7 -1.5 4 -0.2 3.6 0.7C3.3 1.6 2.4 2.3 1.3 2.9C0.3 3.5 -0.9 3.9 -1.9 3.6C-2.9 3.3 -3.8 2.2 -4 0.9C-4.3 -0.3 -4 -1.6 -3.2 -2.4C-2.5 -3.2 -1.2 -3.4 -0.1 -3.4C1.1 -3.4 2.3 -3 3 -2.2Z" stroke="#848484" fill="none" stroke-width="1"></path></g><g transform="translate(66 415)"><path d="M7.6 -5.6C9.2 -3.9 9.6 -0.8 9 2.1C8.3 4.9 6.6 7.6 4.3 8.6C1.9 9.7 -1.1 9.1 -3.7 7.8C-6.2 6.5 -8.3 4.4 -8.6 2.2C-8.9 0 -7.4 -2.4 -5.7 -4.1C-4 -5.8 -2 -6.8 0.5 -7.2C2.9 -7.6 5.9 -7.3 7.6 -5.6Z" stroke="#848484" fill="none" stroke-width="1"></path></g><g transform="translate(498 419)"><path d="M5.8 -4.6C6.9 -3.1 7 -0.8 6.4 1.4C5.9 3.6 4.8 5.6 3.1 6.5C1.3 7.4 -1 7.2 -2.7 6.2C-4.5 5.1 -5.6 3.3 -6.1 1.3C-6.6 -0.6 -6.4 -2.8 -5.3 -4.3C-4.2 -5.8 -2.1 -6.6 0.1 -6.7C2.3 -6.7 4.6 -6.1 5.8 -4.6Z" stroke="#848484" fill="none" stroke-width="1"></path></g><g transform="translate(205 407)"><path d="M5.6 -4.6C7 -2.6 7.9 -0.3 7.5 1.9C7.1 4 5.5 6.1 3.5 6.9C1.5 7.8 -0.9 7.4 -2.9 6.3C-4.8 5.3 -6.2 3.5 -6.6 1.6C-7 -0.3 -6.3 -2.4 -5 -4.4C-3.8 -6.3 -1.9 -8.1 0.1 -8.2C2.1 -8.3 4.1 -6.6 5.6 -4.6Z" stroke="#848484" fill="none" stroke-width="1"></path></g><g transform="translate(762 394)"><path d="M3.5 -2.8C4.2 -1.9 4.3 -0.4 4 0.9C3.7 2.3 3 3.5 1.9 4.1C0.8 4.7 -0.7 4.6 -2 4C-3.3 3.4 -4.5 2.4 -4.9 1.1C-5.2 -0.2 -4.6 -1.7 -3.7 -2.7C-2.7 -3.7 -1.4 -4.1 0 -4.1C1.4 -4.1 2.7 -3.7 3.5 -2.8Z" stroke="#848484" fill="none" stroke-width="1"></path></g><g transform="translate(880 11)"><path d="M5.4 -4.4C6.9 -2.4 8 -0.1 7.7 1.9C7.3 4 5.5 5.8 3.5 6.4C1.6 7 -0.6 6.4 -2.4 5.4C-4.2 4.3 -5.6 3 -6.4 1C-7.2 -0.9 -7.3 -3.4 -6.1 -5.3C-4.9 -7.2 -2.5 -8.5 -0.3 -8.3C1.9 -8.1 3.8 -6.4 5.4 -4.4Z" stroke="#848484" fill="none" stroke-width="1"></path></g><g transform="translate(64 463)"><path d="M1.9 -1.5C2.3 -0.9 2.4 -0.2 2.3 0.6C2.2 1.3 1.8 2.1 1.1 2.6C0.3 3.1 -0.7 3.3 -1.4 2.9C-2.1 2.6 -2.5 1.6 -2.6 0.7C-2.7 -0.2 -2.6 -1.1 -2.2 -1.7C-1.7 -2.3 -0.8 -2.6 -0.1 -2.5C0.7 -2.5 1.4 -2.1 1.9 -1.5Z" stroke="#848484" fill="none" stroke-width="1"></path></g><g transform="translate(128 552)"><path d="M6.6 -5.2C8.1 -3.4 8.5 -0.7 7.8 1.5C7.1 3.8 5.3 5.5 3.2 6.5C1 7.4 -1.4 7.7 -3 6.7C-4.6 5.7 -5.4 3.6 -5.7 1.5C-6 -0.5 -5.7 -2.4 -4.7 -4.2C-3.6 -5.9 -1.8 -7.5 0.4 -7.7C2.5 -8 5.1 -7.1 6.6 -5.2Z" stroke="#848484" fill="none" stroke-width="1"></path></g><g transform="translate(226 57)"><path d="M4.3 -3.6C5.2 -2.3 5.2 -0.6 4.9 1.2C4.5 3 3.8 4.8 2.4 5.7C1 6.6 -1.1 6.6 -2.8 5.8C-4.4 5 -5.7 3.3 -6.1 1.4C-6.4 -0.4 -6 -2.4 -4.8 -3.8C-3.7 -5.1 -1.8 -5.9 -0.1 -5.8C1.7 -5.8 3.4 -4.9 4.3 -3.6Z" stroke="#848484" fill="none" stroke-width="1"></path></g><g transform="translate(319 7)"><path d="M6.3 -5.5C7.6 -3.4 7.8 -0.8 7.3 1.9C6.9 4.6 5.9 7.3 3.7 8.7C1.6 10.2 -1.7 10.2 -3.9 8.9C-6 7.5 -7.1 4.7 -7.7 1.8C-8.4 -1.1 -8.7 -4.1 -7.3 -6.2C-6 -8.3 -3 -9.5 -0.2 -9.3C2.5 -9.2 5 -7.6 6.3 -5.5Z" stroke="#848484" fill="none" stroke-width="1"></path></g><g transform="translate(483 317)"><path d="M7.9 -6C9.8 -3.8 10.7 -0.6 9.9 2C9.1 4.5 6.5 6.4 4 7.2C1.4 8.1 -1.1 7.9 -3.1 6.8C-5.1 5.7 -6.4 3.7 -6.9 1.6C-7.3 -0.5 -6.9 -2.8 -5.6 -4.9C-4.3 -6.9 -2.2 -8.7 0.4 -9C3 -9.3 5.9 -8.2 7.9 -6Z" stroke="#848484" fill="none" stroke-width="1"></path></g><g transform="translate(329 398)"><path d="M2.4 -1.9C2.9 -1.4 2.8 -0.4 2.5 0.5C2.2 1.4 1.9 2.2 1.2 2.5C0.6 2.8 -0.2 2.5 -1.1 2.2C-2 1.8 -2.8 1.3 -3.1 0.5C-3.4 -0.2 -3.2 -1.3 -2.6 -1.9C-2 -2.4 -1 -2.5 0 -2.5C1 -2.5 2 -2.4 2.4 -1.9Z" stroke="#848484" fill="none" stroke-width="1"></path></g><g transform="translate(314 457)"><path d="M2 -1.6C2.4 -1 2.5 -0.2 2.4 0.5C2.2 1.2 1.7 1.9 1 2.3C0.3 2.7 -0.6 2.9 -1.3 2.6C-2 2.3 -2.5 1.5 -2.7 0.6C-2.9 -0.3 -2.8 -1.2 -2.3 -1.9C-1.8 -2.5 -0.9 -2.8 -0.1 -2.7C0.8 -2.6 1.5 -2.2 2 -1.6Z" stroke="#848484" fill="none" stroke-width="1"></path></g><g transform="translate(155 377)"><path d="M2.3 -2C2.8 -1.3 2.8 -0.3 2.5 0.6C2.3 1.5 1.9 2.3 1.3 2.6C0.6 2.9 -0.2 2.6 -1 2.2C-1.7 1.8 -2.4 1.2 -2.7 0.5C-3 -0.3 -2.9 -1.3 -2.4 -2C-1.9 -2.6 -1 -2.9 0 -2.9C0.9 -2.9 1.9 -2.6 2.3 -2Z" stroke="#848484" fill="none" stroke-width="1"></path></g><g transform="translate(508 109)"><path d="M3.5 -2.9C4.2 -1.8 4.4 -0.4 4.1 0.9C3.7 2.3 3 3.5 1.9 4C0.8 4.6 -0.6 4.4 -1.7 3.8C-2.8 3.2 -3.5 2.1 -3.9 0.8C-4.3 -0.5 -4.3 -2 -3.6 -3C-2.9 -4.1 -1.4 -4.8 0 -4.8C1.4 -4.7 2.7 -4 3.5 -2.9Z" stroke="#848484" fill="none" stroke-width="1"></path></g><g transform="translate(658 225)"><path d="M5.9 -4.2C7.5 -2.7 8.4 -0.3 7.8 1.5C7.2 3.4 5 4.6 3 5.3C0.9 6 -1 6.1 -3.1 5.4C-5.2 4.8 -7.5 3.5 -8 1.7C-8.6 -0.2 -7.5 -2.6 -5.8 -4.1C-4.2 -5.6 -2.1 -6.2 0 -6.2C2.2 -6.3 4.3 -5.7 5.9 -4.2Z" stroke="#848484" fill="none" stroke-width="1"></path></g><g transform="translate(881 253)"><path d="M6.9 -5.9C8.2 -3.9 7.9 -1.1 7.3 1.7C6.7 4.4 5.7 7.1 3.9 7.9C2 8.8 -0.6 7.8 -3.2 6.6C-5.7 5.4 -8.1 3.9 -8.8 1.7C-9.5 -0.4 -8.5 -3.2 -6.8 -5.3C-5 -7.4 -2.5 -8.8 0.2 -8.9C2.8 -9 5.6 -7.9 6.9 -5.9Z" stroke="#848484" fill="none" stroke-width="1"></path></g><g transform="translate(311 429)"><path d="M3.2 -2.8C3.9 -1.7 4 -0.4 3.8 1C3.6 2.4 3.1 3.8 2.1 4.3C1.1 4.7 -0.3 4.2 -1.6 3.5C-2.9 2.8 -4.1 2 -4.5 0.8C-4.9 -0.3 -4.6 -1.8 -3.7 -3C-2.8 -4.2 -1.4 -5 -0.1 -4.9C1.3 -4.9 2.5 -3.9 3.2 -2.8Z" stroke="#848484" fill="none" stroke-width="1"></path></g><g transform="translate(410 473)"><path d="M4.8 -3.8C6.1 -2.2 6.9 -0.2 6.7 1.7C6.4 3.7 5 5.6 3.2 6.4C1.3 7.2 -0.9 6.9 -3 6C-5.2 5.1 -7.1 3.6 -7.7 1.6C-8.3 -0.4 -7.6 -2.9 -6.1 -4.6C-4.5 -6.3 -2.3 -7.3 -0.3 -7.1C1.7 -6.8 3.5 -5.5 4.8 -3.8Z" stroke="#848484" fill="none" stroke-width="1"></path></g><g transform="translate(149 329)"><path d="M4.9 -4.3C6.1 -2.4 6.5 -0.4 6.3 1.8C6.1 4 5.2 6.4 3.4 7.4C1.6 8.4 -1 8 -3 6.8C-5 5.6 -6.4 3.7 -6.8 1.6C-7.2 -0.4 -6.6 -2.6 -5.3 -4.5C-4 -6.5 -2 -8.1 -0.1 -8.1C1.9 -8 3.7 -6.2 4.9 -4.3Z" stroke="#848484" fill="none" stroke-width="1"></path></g><g transform="translate(622 484)"><path d="M2.4 -1.9C2.9 -1.3 2.9 -0.3 2.6 0.4C2.3 1.2 1.7 1.8 1 2.2C0.3 2.6 -0.6 2.8 -1.4 2.6C-2.2 2.3 -3 1.6 -3.2 0.7C-3.4 -0.1 -3 -1.1 -2.4 -1.7C-1.7 -2.2 -0.9 -2.4 0.1 -2.5C1 -2.5 2 -2.4 2.4 -1.9Z" stroke="#848484" fill="none" stroke-width="1"></path></g><g transform="translate(69 544)"><path d="M3.5 -3.2C4.3 -1.9 4.3 -0.5 4 1C3.7 2.4 3.2 3.9 2.1 4.5C1 5 -0.5 4.7 -1.9 4C-3.3 3.3 -4.5 2.3 -4.8 1.1C-5.1 -0.2 -4.5 -1.6 -3.5 -3C-2.6 -4.3 -1.3 -5.5 0.1 -5.6C1.4 -5.6 2.8 -4.5 3.5 -3.2Z" stroke="#848484" fill="none" stroke-width="1"></path></g><g transform="translate(425 337)"><path d="M6.6 -4.8C8.2 -3.2 8.9 -0.5 8.3 1.8C7.7 4.1 5.8 6.1 3.6 7C1.3 7.9 -1.2 7.8 -3.3 6.8C-5.4 5.8 -7.1 3.9 -7.4 1.9C-7.8 -0.2 -6.7 -2.3 -5.2 -3.9C-3.8 -5.4 -1.9 -6.3 0.3 -6.6C2.5 -6.8 5 -6.4 6.6 -4.8Z" stroke="#848484" fill="none" stroke-width="1"></path></g><g transform="translate(604 539)"><path d="M3 -2.5C3.8 -1.4 4.3 -0.2 4.1 0.9C3.8 2 2.8 2.9 1.6 3.4C0.5 4 -0.8 4.2 -2.1 3.8C-3.3 3.4 -4.4 2.3 -4.6 1.2C-4.8 0 -4 -1.3 -3.1 -2.5C-2.2 -3.6 -1.1 -4.7 0 -4.7C1.1 -4.7 2.2 -3.7 3 -2.5Z" stroke="#848484" fill="none" stroke-width="1"></path></g><g transform="translate(360 275)"><path d="M5.5 -4.3C6.5 -3 6.4 -0.8 6.1 1.6C5.7 4 5 6.5 3.4 7.4C1.7 8.3 -0.8 7.7 -2.6 6.5C-4.4 5.2 -5.5 3.3 -6 1.2C-6.6 -0.9 -6.8 -3.2 -5.7 -4.5C-4.6 -5.8 -2.3 -6.1 -0.1 -6.1C2.2 -6.1 4.4 -5.7 5.5 -4.3Z" stroke="#848484" fill="none" stroke-width="1"></path></g><g transform="translate(379 130)"><path d="M5.5 -4.1C6.8 -2.7 7.4 -0.4 6.9 1.4C6.3 3.3 4.7 4.8 2.8 5.6C0.9 6.4 -1.1 6.5 -2.9 5.8C-4.7 5 -6.1 3.4 -6.6 1.4C-7.1 -0.5 -6.7 -2.7 -5.4 -4.1C-4.1 -5.6 -2.1 -6.2 0 -6.2C2.1 -6.2 4.1 -5.6 5.5 -4.1Z" stroke="#848484" fill="none" stroke-width="1"></path></g><g transform="translate(266 418)"><path d="M4.5 -3.3C5.7 -2.1 6.4 -0.3 6.1 1.5C5.8 3.3 4.5 5 2.9 5.6C1.3 6.2 -0.6 5.7 -2.1 4.8C-3.7 3.9 -4.9 2.7 -5.5 1C-6.1 -0.7 -6.1 -2.8 -5.1 -3.9C-4 -5 -2 -5.2 -0.2 -5.1C1.7 -5 3.3 -4.5 4.5 -3.3Z" stroke="#848484" fill="none" stroke-width="1"></path></g><g transform="translate(175 140)"><path d="M5.2 -3.6C6.6 -2.4 7.6 -0.2 7.3 1.9C7 4 5.5 6.1 3.6 6.7C1.7 7.4 -0.6 6.6 -2.3 5.5C-4 4.4 -5.2 2.9 -5.6 1.3C-6 -0.4 -5.6 -2.3 -4.5 -3.4C-3.5 -4.6 -1.7 -5.1 0.1 -5.2C1.9 -5.3 3.8 -4.9 5.2 -3.6Z" stroke="#848484" fill="none" stroke-width="1"></path></g><g transform="translate(265 481)"><path d="M2.6 -2.3C3.2 -1.3 3.5 -0.2 3.4 1.1C3.4 2.3 2.9 3.7 2 4.2C1.1 4.6 -0.3 4 -1.4 3.3C-2.5 2.6 -3.3 1.8 -3.7 0.7C-4 -0.3 -3.8 -1.6 -3.1 -2.7C-2.4 -3.7 -1.2 -4.4 -0.1 -4.3C1 -4.2 2 -3.3 2.6 -2.3Z" stroke="#848484" fill="none" stroke-width="1"></path></g><g transform="translate(894 218)"><path d="M4.2 -3.3C5.4 -1.9 6.2 -0.1 6.1 1.8C6 3.6 4.8 5.6 3 6.6C1.2 7.6 -1.2 7.6 -3 6.6C-4.7 5.6 -5.7 3.6 -6.2 1.4C-6.8 -0.8 -6.9 -3.2 -5.8 -4.6C-4.7 -6 -2.3 -6.5 -0.4 -6.1C1.5 -5.8 3 -4.7 4.2 -3.3Z" stroke="#848484" fill="none" stroke-width="1"></path></g><g transform="translate(135 47)"><path d="M3.6 -2.7C4.5 -1.7 5.1 -0.2 4.8 1.2C4.6 2.6 3.6 3.9 2.3 4.4C1 4.9 -0.5 4.6 -2 3.9C-3.6 3.3 -5.1 2.4 -5.4 1.2C-5.6 0.1 -4.6 -1.4 -3.5 -2.4C-2.4 -3.5 -1.2 -4.1 0.1 -4.1C1.3 -4.2 2.6 -3.6 3.6 -2.7Z" stroke="#848484" fill="none" stroke-width="1"></path></g><g transform="translate(148 254)"><path d="M5.6 -4.4C6.9 -2.8 7.3 -0.5 6.7 1.3C6.1 3.1 4.4 4.4 2.7 5.1C0.9 5.8 -1 5.9 -2.5 5.2C-4 4.4 -5.1 2.9 -5.7 1.1C-6.3 -0.8 -6.4 -3 -5.3 -4.5C-4.3 -6.1 -2.2 -7 0 -7C2.1 -6.9 4.3 -6 5.6 -4.4Z" stroke="#848484" fill="none" stroke-width="1"></path></g><g transform="translate(646 570)"><path d="M3.5 -3C4.2 -2 4.2 -0.5 3.9 0.9C3.5 2.2 2.9 3.5 1.9 4C0.9 4.6 -0.6 4.4 -1.7 3.7C-2.9 3.1 -3.7 2.1 -4.1 0.8C-4.5 -0.4 -4.3 -1.9 -3.6 -2.9C-2.8 -3.9 -1.4 -4.5 0 -4.5C1.4 -4.5 2.9 -4 3.5 -3Z" stroke="#848484" fill="none" stroke-width="1"></path></g><g transform="translate(184 298)"><path d="M6.5 -4.7C8.4 -2.9 9.6 -0.2 9.1 2.2C8.7 4.7 6.5 6.8 3.9 8.1C1.2 9.4 -1.8 9.8 -4.4 8.8C-7 7.7 -9 5.1 -9.6 2.2C-10.3 -0.7 -9.5 -3.8 -7.7 -5.7C-5.9 -7.5 -2.9 -7.9 -0.3 -7.7C2.4 -7.4 4.7 -6.6 6.5 -4.7Z" stroke="#848484" fill="none" stroke-width="1"></path></g><g transform="translate(363 501)"><path d="M6.8 -5.4C8.3 -3.7 8.4 -0.9 7.7 1.6C7 4.2 5.6 6.4 3.5 7.6C1.3 8.9 -1.6 9.1 -3.8 8C-6 6.9 -7.5 4.5 -7.7 2.2C-7.9 -0.2 -6.8 -2.4 -5.3 -4.1C-3.8 -5.8 -1.9 -7.1 0.4 -7.4C2.7 -7.8 5.4 -7.1 6.8 -5.4Z" stroke="#848484" fill="none" stroke-width="1"></path></g><g transform="translate(767 171)"><path d="M4.8 -4.2C5.9 -2.4 6.2 -0.5 5.9 1.6C5.7 3.6 4.7 5.8 3.2 6.5C1.6 7.2 -0.6 6.6 -2.6 5.6C-4.6 4.6 -6.4 3.2 -7.2 1.2C-8 -0.8 -7.7 -3.4 -6.4 -5.2C-5 -7 -2.5 -8 -0.3 -7.7C1.8 -7.4 3.7 -5.9 4.8 -4.2Z" stroke="#848484" fill="none" stroke-width="1"></path></g><g transform="translate(342 97)"><path d="M7.1 -5.4C8.6 -3.8 8.7 -0.9 8.1 1.8C7.4 4.5 6 7 3.9 7.8C1.9 8.7 -0.8 7.9 -3 6.6C-5.2 5.4 -7 3.7 -7.7 1.5C-8.4 -0.7 -8.1 -3.5 -6.6 -5C-5.2 -6.6 -2.6 -7 0.1 -7.1C2.8 -7.2 5.7 -7 7.1 -5.4Z" stroke="#848484" fill="none" stroke-width="1"></path></g><g transform="translate(330 500)"><path d="M4.9 -3.4C6.6 -1.9 8.1 0.2 8 2.2C7.9 4.3 6 6.4 3.8 7.1C1.7 7.8 -0.7 7.1 -2.5 6C-4.3 4.8 -5.6 3.2 -6.2 1.3C-6.7 -0.7 -6.6 -2.9 -5.4 -4.3C-4.3 -5.6 -2.1 -6.1 -0.2 -5.9C1.7 -5.7 3.3 -4.8 4.9 -3.4Z" stroke="#848484" fill="none" stroke-width="1"></path></g><g transform="translate(28 490)"><path d="M3.6 -2.7C4.5 -1.8 4.8 -0.3 4.5 1C4.2 2.4 3.2 3.6 2.1 4.1C0.9 4.5 -0.5 4.2 -1.5 3.5C-2.5 2.9 -3.1 1.9 -3.6 0.6C-4 -0.6 -4.2 -2.1 -3.6 -2.9C-3 -3.7 -1.5 -3.9 0 -3.9C1.4 -3.9 2.8 -3.6 3.6 -2.7Z" stroke="#848484" fill="none" stroke-width="1"></path></g><g transform="translate(458 354)"><path d="M5.1 -3.8C6.6 -2.2 7.9 0 7.6 2.1C7.4 4.2 5.8 6.4 3.6 7.4C1.4 8.4 -1.3 8.4 -3.5 7.3C-5.6 6.2 -7.2 4.1 -7.5 2C-7.8 -0.2 -6.7 -2.3 -5.2 -3.9C-3.8 -5.5 -1.9 -6.6 0 -6.5C1.8 -6.5 3.6 -5.4 5.1 -3.8Z" stroke="#848484" fill="none" stroke-width="1"></path></g><g transform="translate(637 512)"><path d="M2.8 -2.2C3.5 -1.3 3.9 -0.2 3.8 1.1C3.6 2.4 3.1 3.8 2 4.5C0.9 5.1 -0.7 4.9 -1.8 4.2C-2.9 3.5 -3.4 2.2 -3.7 0.9C-3.9 -0.4 -3.8 -1.7 -3.1 -2.6C-2.5 -3.5 -1.2 -3.9 -0.1 -3.9C1 -3.8 2.1 -3.1 2.8 -2.2Z" stroke="#848484" fill="none" stroke-width="1"></path></g><g transform="translate(730 167)"><path d="M5.2 -4.1C6.4 -2.6 6.8 -0.5 6.5 1.8C6.3 4.1 5.3 6.6 3.6 7.5C1.8 8.4 -0.8 7.6 -3 6.5C-5.3 5.3 -7.3 3.7 -8.1 1.5C-8.9 -0.8 -8.6 -3.7 -7.1 -5.3C-5.5 -6.8 -2.8 -7.1 -0.4 -6.8C2 -6.5 4 -5.6 5.2 -4.1Z" stroke="#848484" fill="none" stroke-width="1"></path></g><g transform="translate(418 30)"><path d="M2.8 -2.5C3.6 -1.3 4 -0.2 3.9 1.1C3.8 2.4 3.1 3.7 1.9 4.5C0.8 5.2 -0.9 5.3 -2.2 4.6C-3.6 4 -4.5 2.6 -4.6 1.3C-4.7 0 -4 -1.3 -3 -2.4C-2.1 -3.6 -1.1 -4.7 0 -4.7C1.1 -4.7 2.1 -3.6 2.8 -2.5Z" stroke="#848484" fill="none" stroke-width="1"></path></g><g transform="translate(880 478)"><path d="M4.5 -3.7C5.3 -2.5 5.2 -0.7 4.7 0.8C4.1 2.3 3.2 3.5 2 4C0.8 4.5 -0.6 4.4 -1.8 3.8C-3 3.2 -3.9 2.2 -4.5 0.7C-5 -0.7 -5.2 -2.5 -4.4 -3.7C-3.6 -4.9 -1.8 -5.6 0 -5.6C1.8 -5.6 3.6 -5 4.5 -3.7Z" stroke="#848484" fill="none" stroke-width="1"></path></g><g transform="translate(626 114)"><path d="M7.6 -6.5C9.1 -4.2 9.1 -1.1 8.3 1.6C7.4 4.3 5.8 6.5 3.7 7.3C1.7 8.2 -0.9 7.7 -3.2 6.6C-5.5 5.5 -7.6 3.9 -8.4 1.6C-9.1 -0.7 -8.6 -3.5 -6.9 -5.9C-5.3 -8.2 -2.7 -10 0.2 -10.2C3.1 -10.4 6.1 -8.9 7.6 -6.5Z" stroke="#848484" fill="none" stroke-width="1"></path></g><g transform="translate(674 138)"><path d="M1.9 -1.6C2.3 -0.9 2.5 -0.2 2.4 0.6C2.2 1.4 1.8 2.1 1.1 2.5C0.4 2.9 -0.5 2.9 -1.4 2.6C-2.2 2.3 -3 1.6 -3.3 0.7C-3.5 -0.2 -3.3 -1.3 -2.6 -2C-2 -2.7 -1 -2.9 -0.1 -2.8C0.7 -2.7 1.4 -2.2 1.9 -1.6Z" stroke="#848484" fill="none" stroke-width="1"></path></g><g transform="translate(571 93)"><path d="M4.1 -3.2C4.8 -2.3 4.7 -0.6 4.4 1C4 2.7 3.4 4.3 2.2 5.1C0.9 6 -1 6.1 -2.5 5.4C-4 4.6 -5.1 3 -5.3 1.5C-5.4 -0.1 -4.6 -1.6 -3.6 -2.6C-2.6 -3.7 -1.3 -4.2 0.2 -4.4C1.6 -4.5 3.3 -4.2 4.1 -3.2Z" stroke="#848484" fill="none" stroke-width="1"></path></g><g transform="translate(342 360)"><path d="M4.7 -3.9C6 -2 7.1 -0.1 6.7 1.5C6.3 3.2 4.6 4.5 2.5 5.6C0.5 6.7 -1.8 7.7 -3.9 7.1C-5.9 6.5 -7.7 4.3 -8.1 2C-8.5 -0.3 -7.6 -2.8 -6 -4.8C-4.5 -6.7 -2.2 -8.1 -0.3 -7.9C1.7 -7.7 3.3 -5.8 4.7 -3.9Z" stroke="#848484" fill="none" stroke-width="1"></path></g><g transform="translate(808 39)"><path d="M5.8 -4.9C6.9 -3.1 7 -0.8 6.4 1.3C5.8 3.4 4.6 5.1 2.7 6.4C0.7 7.7 -1.9 8.5 -3.6 7.6C-5.4 6.8 -6.3 4.2 -6.9 1.6C-7.5 -1.1 -7.8 -3.8 -6.6 -5.6C-5.4 -7.3 -2.7 -8.2 -0.2 -8C2.3 -7.8 4.6 -6.7 5.8 -4.9Z" stroke="#848484" fill="none" stroke-width="1"></path></g><g transform="translate(666 444)"><path d="M5.7 -5.2C7 -3 7.2 -0.6 7 2C6.7 4.6 5.9 7.5 3.9 8.8C1.9 10 -1.3 9.6 -3.9 8.3C-6.5 6.9 -8.6 4.7 -9 2.3C-9.3 -0.1 -7.9 -2.6 -6.1 -4.9C-4.3 -7.3 -2.2 -9.3 0 -9.4C2.2 -9.4 4.5 -7.4 5.7 -5.2Z" stroke="#848484" fill="none" stroke-width="1"></path></g><g transform="translate(244 507)"><path d="M3.4 -2.8C4.2 -1.8 4.4 -0.3 4.2 1C3.9 2.4 3.2 3.7 2 4.4C0.8 5.1 -0.9 5.2 -2.1 4.6C-3.3 3.9 -4.1 2.5 -4.3 1.1C-4.5 -0.3 -4.3 -1.8 -3.5 -2.8C-2.7 -3.8 -1.3 -4.4 0 -4.4C1.3 -4.4 2.7 -3.8 3.4 -2.8Z" stroke="#848484" fill="none" stroke-width="1"></path></g><g transform="translate(102 493)"><path d="M5.2 -4.2C6.3 -2.8 6.5 -0.6 6.1 1.6C5.8 3.8 4.9 6 3.1 7.2C1.2 8.4 -1.5 8.5 -3.2 7.4C-4.9 6.3 -5.7 3.9 -6.1 1.5C-6.5 -0.8 -6.6 -3.1 -5.6 -4.5C-4.5 -5.8 -2.2 -6.3 -0.1 -6.2C2.1 -6.1 4.1 -5.5 5.2 -4.2Z" stroke="#848484" fill="none" stroke-width="1"></path></g><g transform="translate(465 579)"><path d="M3.7 -3C4.5 -1.9 4.7 -0.4 4.3 0.9C3.9 2.2 3 3.2 1.8 3.9C0.5 4.6 -1 4.9 -2.2 4.4C-3.5 3.9 -4.5 2.6 -4.6 1.3C-4.7 0 -3.9 -1.2 -3 -2.3C-2.1 -3.4 -1 -4.4 0.2 -4.6C1.4 -4.7 2.9 -4.1 3.7 -3Z" stroke="#848484" fill="none" stroke-width="1"></path></g><g transform="translate(5 116)"><path d="M5.1 -4C6.2 -2.6 6.6 -0.5 6 1.2C5.5 2.9 4.1 4.2 2.5 4.9C0.9 5.5 -0.9 5.5 -2.6 4.9C-4.4 4.3 -6.2 3 -6.6 1.5C-6.9 -0.1 -5.9 -1.9 -4.5 -3.4C-3.2 -4.8 -1.6 -5.7 0.2 -5.9C2 -6 3.9 -5.4 5.1 -4Z" stroke="#848484" fill="none" stroke-width="1"></path></g><g transform="translate(569 431)"><path d="M5.5 -4.4C6.9 -2.7 7.6 -0.4 7 1.5C6.5 3.4 4.8 4.9 2.8 6C0.7 7.2 -1.7 7.9 -3.8 7.1C-6 6.4 -7.8 4.3 -8.2 2C-8.7 -0.3 -7.7 -2.9 -6.1 -4.6C-4.5 -6.4 -2.3 -7.3 -0.1 -7.3C2.1 -7.2 4.2 -6.1 5.5 -4.4Z" stroke="#848484" fill="none" stroke-width="1"></path></g><g transform="translate(38 415)"><path d="M6.3 -5C7.6 -3.4 7.8 -0.8 7.4 2C7 4.8 6.1 7.7 4 9C2 10.2 -1.2 9.7 -4 8.3C-6.8 7 -9.1 4.8 -9.5 2.4C-9.9 -0.1 -8.4 -2.8 -6.5 -4.6C-4.6 -6.4 -2.3 -7.3 0.1 -7.3C2.5 -7.4 5 -6.7 6.3 -5Z" stroke="#848484" fill="none" stroke-width="1"></path></g><g transform="translate(765 272)"><path d="M3.5 -2.8C4.5 -1.5 5.3 -0.1 5 1.2C4.8 2.5 3.5 3.6 2.1 4.3C0.7 4.9 -0.9 5.1 -2.3 4.5C-3.6 3.9 -4.7 2.6 -5.1 1.1C-5.5 -0.4 -5.2 -2.2 -4.2 -3.4C-3.3 -4.6 -1.6 -5.3 -0.2 -5.2C1.2 -5 2.5 -4 3.5 -2.8Z" stroke="#848484" fill="none" stroke-width="1"></path></g><g transform="translate(829 182)"><path d="M2 -1.7C2.6 -0.9 3 -0.1 2.8 0.7C2.7 1.4 2 2 1.2 2.3C0.5 2.5 -0.3 2.4 -1.1 2.1C-1.9 1.8 -2.7 1.3 -2.9 0.6C-3.1 -0.1 -2.8 -1 -2.2 -1.8C-1.6 -2.6 -0.8 -3.2 0 -3.2C0.7 -3.1 1.5 -2.4 2 -1.7Z" stroke="#848484" fill="none" stroke-width="1"></path></g><g transform="translate(722 123)"><path d="M3.2 -2.5C4 -1.6 4.3 -0.3 4 0.8C3.6 1.8 2.6 2.5 1.5 3C0.4 3.5 -0.7 3.6 -1.7 3.3C-2.7 2.9 -3.6 2 -3.9 0.8C-4.3 -0.3 -4.1 -1.7 -3.3 -2.6C-2.6 -3.5 -1.3 -3.8 0 -3.8C1.2 -3.8 2.4 -3.3 3.2 -2.5Z" stroke="#848484" fill="none" stroke-width="1"></path></g><g transform="translate(485 345)"><path d="M3 -2.6C3.7 -1.4 4.1 -0.2 3.9 1.1C3.7 2.3 3.1 3.6 2 4.2C0.9 4.7 -0.5 4.4 -1.8 3.8C-3 3.1 -4.1 2.1 -4.3 1C-4.6 -0.2 -4.2 -1.6 -3.3 -2.8C-2.5 -3.9 -1.2 -4.9 -0.1 -4.9C1.1 -4.8 2.2 -3.7 3 -2.6Z" stroke="#848484" fill="none" stroke-width="1"></path></g><g transform="translate(522 297)"><path d="M7.1 -5.9C8.5 -3.9 8.4 -1 7.6 1.6C6.9 4.1 5.5 6.4 3.5 7.4C1.4 8.5 -1.3 8.4 -3.8 7.4C-6.4 6.4 -8.7 4.5 -9.5 1.9C-10.4 -0.7 -9.7 -4 -7.9 -6.1C-6 -8.2 -3 -9.2 -0.1 -9.1C2.9 -9.1 5.7 -7.9 7.1 -5.9Z" stroke="#848484" fill="none" stroke-width="1"></path></g><g transform="translate(292 275)"><path d="M5.4 -4.1C6.9 -2.3 8.1 -0.1 7.7 1.7C7.2 3.5 5.2 5 3.1 5.8C1 6.5 -1.2 6.7 -3.1 5.9C-5.1 5.2 -6.9 3.6 -7.2 1.8C-7.5 0 -6.2 -2 -4.8 -3.7C-3.3 -5.4 -1.7 -6.8 0.1 -6.9C1.9 -7 3.8 -5.8 5.4 -4.1Z" stroke="#848484" fill="none" stroke-width="1"></path></g><g transform="translate(34 50)"><path d="M3 -2.5C3.8 -1.4 4.2 -0.2 4 1C3.8 2.2 3 3.3 1.8 4C0.6 4.7 -1 5 -2.2 4.5C-3.4 3.9 -4.2 2.5 -4.6 1.1C-4.9 -0.4 -4.7 -2 -3.8 -3.1C-3 -4.2 -1.5 -4.8 -0.2 -4.7C1.1 -4.5 2.2 -3.6 3 -2.5Z" stroke="#848484" fill="none" stroke-width="1"></path></g><g transform="translate(42 347)"><path d="M2.5 -2C3.1 -1.3 3.2 -0.3 3 0.6C2.7 1.5 2.1 2.3 1.3 2.6C0.5 3 -0.4 2.9 -1.2 2.5C-2 2.2 -2.7 1.5 -2.9 0.7C-3.1 -0.2 -2.8 -1.1 -2.2 -1.8C-1.7 -2.5 -0.8 -2.9 0.1 -3C1 -3.1 2 -2.7 2.5 -2Z" stroke="#848484" fill="none" stroke-width="1"></path></g><g transform="translate(676 165)"><path d="M6.1 -5.3C7.2 -3.4 7 -0.9 6.2 1C5.4 3 4.2 4.5 2.6 5.2C1 5.9 -0.9 5.9 -2.5 5.2C-4.1 4.4 -5.4 3 -6 1.2C-6.5 -0.6 -6.3 -2.7 -5.1 -4.5C-4 -6.4 -2 -8 0.2 -8.2C2.5 -8.4 4.9 -7.1 6.1 -5.3Z" stroke="#848484" fill="none" stroke-width="1"></path></g><g transform="translate(62 215)"><path d="M7.2 -5.3C9 -3.5 9.8 -0.5 9.3 2.3C8.8 5.1 6.9 7.9 4.6 8.6C2.3 9.3 -0.5 8.1 -2.7 6.6C-4.9 5.2 -6.4 3.5 -6.9 1.6C-7.3 -0.4 -6.7 -2.6 -5.3 -4.2C-4 -5.9 -2 -6.9 0.4 -7.2C2.7 -7.5 5.4 -7 7.2 -5.3Z" stroke="#848484" fill="none" stroke-width="1"></path></g><g transform="translate(211 562)"><path d="M4.4 -3.3C5.2 -2.4 5.2 -0.6 4.9 1.1C4.5 2.9 3.8 4.6 2.4 5.3C1.1 6 -0.8 5.8 -2.3 5C-3.8 4.1 -4.9 2.7 -5.2 1.2C-5.6 -0.3 -5.1 -2.1 -4.1 -3C-3.1 -4 -1.6 -4.3 0.1 -4.3C1.7 -4.4 3.5 -4.3 4.4 -3.3Z" stroke="#848484" fill="none" stroke-width="1"></path></g><g transform="translate(568 187)"><path d="M4.4 -3.4C5.3 -2.3 5.5 -0.5 5.2 1.4C4.9 3.2 4.2 5.1 2.8 5.9C1.3 6.7 -0.7 6.3 -2.3 5.3C-3.8 4.3 -4.8 2.8 -5.1 1.2C-5.4 -0.4 -5.1 -2 -4.1 -3.2C-3.1 -4.4 -1.6 -5 0.1 -5C1.7 -5.1 3.4 -4.6 4.4 -3.4Z" stroke="#848484" fill="none" stroke-width="1"></path></g><g transform="translate(380 474)"><path d="M3.5 -2.9C4.5 -1.6 5 -0.2 4.8 1.1C4.5 2.4 3.4 3.6 2.1 4.2C0.7 4.8 -0.8 4.9 -1.9 4.3C-3 3.6 -3.7 2.3 -4.1 0.9C-4.5 -0.6 -4.6 -2.2 -3.9 -3.4C-3.2 -4.5 -1.6 -5.3 -0.1 -5.2C1.3 -5 2.6 -4.1 3.5 -2.9Z" stroke="#848484" fill="none" stroke-width="1"></path></g><g transform="translate(685 7)"><path d="M6.2 -4.7C7.6 -3.1 8.1 -0.6 7.7 1.9C7.2 4.3 5.8 6.6 3.8 7.4C1.8 8.1 -0.6 7.3 -2.7 6.1C-4.8 4.9 -6.4 3.4 -6.9 1.5C-7.4 -0.3 -6.7 -2.5 -5.3 -4.1C-4 -5.6 -2 -6.5 0.2 -6.7C2.4 -6.8 4.7 -6.2 6.2 -4.7Z" stroke="#848484" fill="none" stroke-width="1"></path></g><g transform="translate(869 329)"><path d="M7.1 -5.3C8.9 -3.4 9.8 -0.5 9 1.8C8.3 4.2 6 6 3.7 6.8C1.3 7.7 -1.2 7.6 -3.6 6.7C-5.9 5.8 -8.2 4.1 -8.9 1.9C-9.5 -0.4 -8.5 -3.1 -6.7 -5C-4.9 -6.8 -2.5 -7.7 0.1 -7.7C2.7 -7.8 5.3 -7.1 7.1 -5.3Z" stroke="#848484" fill="none" stroke-width="1"></path></g><g transform="translate(564 398)"><path d="M4.4 -3.2C5.6 -2.1 6.3 -0.2 6 1.6C5.8 3.4 4.6 5.2 2.8 6.2C1.1 7.1 -1.2 7.1 -2.9 6.2C-4.7 5.3 -5.9 3.5 -6.2 1.6C-6.5 -0.3 -6 -2.3 -4.8 -3.5C-3.6 -4.6 -1.8 -4.9 -0.1 -4.9C1.6 -4.8 3.2 -4.3 4.4 -3.2Z" stroke="#848484" fill="none" stroke-width="1"></path></g><g transform="translate(605 432)"><path d="M4.9 -4C6.1 -2.4 6.8 -0.3 6.4 1.5C6 3.4 4.7 5.1 3 5.7C1.3 6.2 -0.6 5.7 -2.4 4.9C-4.2 4 -5.9 2.9 -6.3 1.3C-6.8 -0.2 -5.9 -2.1 -4.7 -3.7C-3.4 -5.3 -1.7 -6.6 0.1 -6.7C1.8 -6.7 3.7 -5.6 4.9 -4Z" stroke="#848484" fill="none" stroke-width="1"></path></g><g transform="translate(239 20)"><path d="M3.5 -3C4.2 -1.9 4.2 -0.5 3.8 0.8C3.5 2.1 2.8 3.2 1.7 3.9C0.5 4.7 -1 5 -2.1 4.4C-3.2 3.9 -3.9 2.5 -4.2 1C-4.5 -0.5 -4.5 -2 -3.7 -3.1C-3 -4.2 -1.5 -4.9 0 -4.9C1.4 -4.8 2.8 -4.1 3.5 -3Z" stroke="#848484" fill="none" stroke-width="1"></path></g><g transform="translate(758 478)"><path d="M4.7 -3.9C5.7 -2.4 6.1 -0.5 5.6 1.2C5.2 2.9 4 4.4 2.3 5.6C0.5 6.8 -1.8 7.8 -3.6 7.1C-5.4 6.4 -6.6 4.1 -6.8 1.9C-7 -0.3 -6.2 -2.3 -4.9 -3.9C-3.6 -5.5 -1.8 -6.6 0 -6.6C1.8 -6.6 3.6 -5.4 4.7 -3.9Z" stroke="#848484" fill="none" stroke-width="1"></path></g><g transform="translate(535 565)"><path d="M6.2 -5.1C7.5 -3.3 7.7 -0.7 7.1 1.4C6.4 3.6 4.9 5.4 3 6.4C1 7.4 -1.4 7.7 -3.5 6.8C-5.6 6 -7.3 4 -7.6 1.9C-8 -0.2 -6.9 -2.4 -5.4 -4.2C-3.9 -6.1 -1.9 -7.6 0.3 -7.8C2.4 -8 4.9 -6.9 6.2 -5.1Z" stroke="#848484" fill="none" stroke-width="1"></path></g></g></svg>