<svg id="visual" viewBox="0 0 960 540" width="960" height="540" xmlns="http://www.w3.org/2000/svg" xmlns:xlink="http://www.w3.org/1999/xlink" version="1.1"><rect x="0" y="0" width="960" height="540" fill="#7fcdff"></rect><path d="M0 165L22.8 163.3C45.7 161.7 91.3 158.3 137 167.3C182.7 176.3 228.3 197.7 274 194.3C319.7 191 365.3 163 411.2 157.5C457 152 503 169 548.8 183.5C594.7 198 640.3 210 686 212.5C731.7 215 777.3 208 823 193.8C868.7 179.7 914.3 158.3 937.2 147.7L960 137L960 0L937.2 0C914.3 0 868.7 0 823 0C777.3 0 731.7 0 686 0C640.3 0 594.7 0 548.8 0C503 0 457 0 411.2 0C365.3 0 319.7 0 274 0C228.3 0 182.7 0 137 0C91.3 0 45.7 0 22.8 0L0 0Z" fill="#7fcdff"></path><path d="M0 115L22.8 118C45.7 121 91.3 127 137 127C182.7 127 228.3 121 274 122C319.7 123 365.3 131 411.2 138.8C457 146.7 503 154.3 548.8 153.7C594.7 153 640.3 144 686 144.3C731.7 144.7 777.3 154.3 823 156.8C868.7 159.3 914.3 154.7 937.2 152.3L960 150L960 0L937.2 0C914.3 0 868.7 0 823 0C777.3 0 731.7 0 686 0C640.3 0 594.7 0 548.8 0C503 0 457 0 411.2 0C365.3 0 319.7 0 274 0C228.3 0 182.7 0 137 0C91.3 0 45.7 0 22.8 0L0 0Z" fill="#65b3e7"></path><path d="M0 140L22.8 131C45.7 122 91.3 104 137 95.2C182.7 86.3 228.3 86.7 274 89.3C319.7 92 365.3 97 411.2 99.7C457 102.3 503 102.7 548.8 109.8C594.7 117 640.3 131 686 128.5C731.7 126 777.3 107 823 103.3C868.7 99.7 914.3 111.3 937.2 117.2L960 123L960 0L937.2 0C914.3 0 868.7 0 823 0C777.3 0 731.7 0 686 0C640.3 0 594.7 0 548.8 0C503 0 457 0 411.2 0C365.3 0 319.7 0 274 0C228.3 0 182.7 0 137 0C91.3 0 45.7 0 22.8 0L0 0Z" fill="#4b9acf"></path><path d="M0 87L22.8 89.5C45.7 92 91.3 97 137 98.7C182.7 100.3 228.3 98.7 274 94.3C319.7 90 365.3 83 411.2 82.2C457 81.3 503 86.7 548.8 88.8C594.7 91 640.3 90 686 91.3C731.7 92.7 777.3 96.3 823 98.5C868.7 100.7 914.3 101.3 937.2 101.7L960 102L960 0L937.2 0C914.3 0 868.7 0 823 0C777.3 0 731.7 0 686 0C640.3 0 594.7 0 548.8 0C503 0 457 0 411.2 0C365.3 0 319.7 0 274 0C228.3 0 182.7 0 137 0C91.3 0 45.7 0 22.8 0L0 0Z" fill="#2f81b8"></path><path d="M0 22L22.8 27.3C45.7 32.7 91.3 43.3 137 47.5C182.7 51.7 228.3 49.3 274 49C319.7 48.7 365.3 50.3 411.2 47C457 43.7 503 35.3 548.8 33.2C594.7 31 640.3 35 686 38.2C731.7 41.3 777.3 43.7 823 42.8C868.7 42 914.3 38 937.2 36L960 34L960 0L937.2 0C914.3 0 868.7 0 823 0C777.3 0 731.7 0 686 0C640.3 0 594.7 0 548.8 0C503 0 457 0 411.2 0C365.3 0 319.7 0 274 0C228.3 0 182.7 0 137 0C91.3 0 45.7 0 22.8 0L0 0Z" fill="#0369a1"></path></svg>