<svg id="visual" viewBox="0 0 900 450" width="900" height="450" xmlns="http://www.w3.org/2000/svg" xmlns:xlink="http://www.w3.org/1999/xlink" version="1.1"><path d="M0 33L13.7 33C27.3 33 54.7 33 82 34.5C109.3 36 136.7 39 163.8 46.5C191 54 218 66 245.2 70.5C272.3 75 299.7 72 327 64.5C354.3 57 381.7 45 409 42.7C436.3 40.3 463.7 47.7 491 51.3C518.3 55 545.7 55 573 50.5C600.3 46 627.7 37 654.8 37.8C682 38.7 709 49.3 736.2 56.2C763.3 63 790.7 66 818 63.7C845.3 61.3 872.7 53.7 886.3 49.8L900 46L900 0L886.3 0C872.7 0 845.3 0 818 0C790.7 0 763.3 0 736.2 0C709 0 682 0 654.8 0C627.7 0 600.3 0 573 0C545.7 0 518.3 0 491 0C463.7 0 436.3 0 409 0C381.7 0 354.3 0 327 0C299.7 0 272.3 0 245.2 0C218 0 191 0 163.8 0C136.7 0 109.3 0 82 0C54.7 0 27.3 0 13.7 0L0 0Z" fill="#7fcdff"></path><path d="M0 132L13.7 138.7C27.3 145.3 54.7 158.7 82 154.8C109.3 151 136.7 130 163.8 132.3C191 134.7 218 160.3 245.2 175.3C272.3 190.3 299.7 194.7 327 196.8C354.3 199 381.7 199 409 199.8C436.3 200.7 463.7 202.3 491 204.7C518.3 207 545.7 210 573 209.2C600.3 208.3 627.7 203.7 654.8 189.3C682 175 709 151 736.2 150.3C763.3 149.7 790.7 172.3 818 172.3C845.3 172.3 872.7 149.7 886.3 138.3L900 127L900 44L886.3 47.8C872.7 51.7 845.3 59.3 818 61.7C790.7 64 763.3 61 736.2 54.2C709 47.3 682 36.7 654.8 35.8C627.7 35 600.3 44 573 48.5C545.7 53 518.3 53 491 49.3C463.7 45.7 436.3 38.3 409 40.7C381.7 43 354.3 55 327 62.5C299.7 70 272.3 73 245.2 68.5C218 64 191 52 163.8 44.5C136.7 37 109.3 34 82 32.5C54.7 31 27.3 31 13.7 31L0 31Z" fill="#39648a"></path><path d="M0 316L13.7 311.5C27.3 307 54.7 298 82 293.5C109.3 289 136.7 289 163.8 302.5C191 316 218 343 245.2 343C272.3 343 299.7 316 327 304C354.3 292 381.7 295 409 294.3C436.3 293.7 463.7 289.3 491 287.2C518.3 285 545.7 285 573 281.2C600.3 277.3 627.7 269.7 654.8 273.3C682 277 709 292 736.2 303.3C763.3 314.7 790.7 322.3 818 328.3C845.3 334.3 872.7 338.7 886.3 340.8L900 343L900 125L886.3 136.3C872.7 147.7 845.3 170.3 818 170.3C790.7 170.3 763.3 147.7 736.2 148.3C709 149 682 173 654.8 187.3C627.7 201.7 600.3 206.3 573 207.2C545.7 208 518.3 205 491 202.7C463.7 200.3 436.3 198.7 409 197.8C381.7 197 354.3 197 327 194.8C299.7 192.7 272.3 188.3 245.2 173.3C218 158.3 191 132.7 163.8 130.3C136.7 128 109.3 149 82 152.8C54.7 156.7 27.3 143.3 13.7 136.7L0 130Z" fill="#102e4a"></path><path d="M0 406L13.7 400.8C27.3 395.7 54.7 385.3 82 374.8C109.3 364.3 136.7 353.7 163.8 357.3C191 361 218 379 245.2 381.3C272.3 383.7 299.7 370.3 327 361.3C354.3 352.3 381.7 347.7 409 342.3C436.3 337 463.7 331 491 335.5C518.3 340 545.7 355 573 355.8C600.3 356.7 627.7 343.3 654.8 344.8C682 346.3 709 362.7 736.2 370.2C763.3 377.7 790.7 376.3 818 379.3C845.3 382.3 872.7 389.7 886.3 393.3L900 397L900 341L886.3 338.8C872.7 336.7 845.3 332.3 818 326.3C790.7 320.3 763.3 312.7 736.2 301.3C709 290 682 275 654.8 271.3C627.7 267.7 600.3 275.3 573 279.2C545.7 283 518.3 283 491 285.2C463.7 287.3 436.3 291.7 409 292.3C381.7 293 354.3 290 327 302C299.7 314 272.3 341 245.2 341C218 341 191 314 163.8 300.5C136.7 287 109.3 287 82 291.5C54.7 296 27.3 305 13.7 309.5L0 314Z" fill="#39648a"></path><path d="M0 451L13.7 451C27.3 451 54.7 451 82 451C109.3 451 136.7 451 163.8 451C191 451 218 451 245.2 451C272.3 451 299.7 451 327 451C354.3 451 381.7 451 409 451C436.3 451 463.7 451 491 451C518.3 451 545.7 451 573 451C600.3 451 627.7 451 654.8 451C682 451 709 451 736.2 451C763.3 451 790.7 451 818 451C845.3 451 872.7 451 886.3 451L900 451L900 395L886.3 391.3C872.7 387.7 845.3 380.3 818 377.3C790.7 374.3 763.3 375.7 736.2 368.2C709 360.7 682 344.3 654.8 342.8C627.7 341.3 600.3 354.7 573 353.8C545.7 353 518.3 338 491 333.5C463.7 329 436.3 335 409 340.3C381.7 345.7 354.3 350.3 327 359.3C299.7 368.3 272.3 381.7 245.2 379.3C218 377 191 359 163.8 355.3C136.7 351.7 109.3 362.3 82 372.8C54.7 383.3 27.3 393.7 13.7 398.8L0 404Z" fill="#7fcdff"></path></svg>