<svg id="visual" viewBox="0 0 960 540" width="960" height="540" xmlns="http://www.w3.org/2000/svg" xmlns:xlink="http://www.w3.org/1999/xlink" version="1.1"><path d="M0 339L10.7 333.2C21.3 327.3 42.7 315.7 64 317C85.3 318.3 106.7 332.7 128 359C149.3 385.3 170.7 423.7 192 423.7C213.3 423.7 234.7 385.3 256 387.5C277.3 389.7 298.7 432.3 320 441.5C341.3 450.7 362.7 426.3 384 396.3C405.3 366.3 426.7 330.7 448 318.7C469.3 306.7 490.7 318.3 512 331.3C533.3 344.3 554.7 358.7 576 369.8C597.3 381 618.7 389 640 390C661.3 391 682.7 385 704 371C725.3 357 746.7 335 768 349.5C789.3 364 810.7 415 832 422C853.3 429 874.7 392 896 391.2C917.3 390.3 938.7 425.7 949.3 443.3L960 461L960 541L949.3 541C938.7 541 917.3 541 896 541C874.7 541 853.3 541 832 541C810.7 541 789.3 541 768 541C746.7 541 725.3 541 704 541C682.7 541 661.3 541 640 541C618.7 541 597.3 541 576 541C554.7 541 533.3 541 512 541C490.7 541 469.3 541 448 541C426.7 541 405.3 541 384 541C362.7 541 341.3 541 320 541C298.7 541 277.3 541 256 541C234.7 541 213.3 541 192 541C170.7 541 149.3 541 128 541C106.7 541 85.3 541 64 541C42.7 541 21.3 541 10.7 541L0 541Z" fill="#459ba7" stroke-linecap="round" stroke-linejoin="miter"></path></svg>